<svg xmlns="http://www.w3.org/2000/svg" viewBox="0 0 1108 1108"><defs><style>.cls-1{fill:#fff;}</style></defs><title>bridge</title><g id="Ebene_2" data-name="Ebene 2"><g id="Ebene_1-2" data-name="Ebene 1"><path class="cls-1" d="M556,320.55c-130.37-.83-234.85,101.91-235.45,231.54-.6,130.16,102.56,234.47,232.24,234.82,129.94.35,234-103.25,234.12-233C787,425.19,684.27,321.37,556,320.55Zm-.59,415.19c-100,1.13-183.93-82.23-183.69-182.4.23-99.21,82.45-181.42,181.66-181.62s181.66,81.75,182.36,181C736.44,651.53,654.58,734.62,555.41,735.74Z"/><path class="cls-1" d="M587.56,211.74c-1.42,17.42-13.49,28.62-33.39,30.18-19.1,1.51-35.06-15.63-34.27-35.35.84-21.15,13.5-32,33.34-33.52C572.39,171.54,588.12,188.66,587.56,211.74Z"/><path class="cls-1" d="M363.27,207.2c.15,18.49-16.7,35.3-35.08,35s-35.52-17.65-34-35.86c1.67-20,13.77-31.61,33.5-33.38C346.06,171.34,363.13,188.61,363.27,207.2Z"/><path class="cls-1" d="M813.53,207.4c0,18.16-17.37,36.1-35.35,34.65-19.77-1.61-31.9-13.17-33.7-33.2-1.66-18.47,15.07-35.76,33.58-36.17C796.2,172.28,813.51,189.21,813.53,207.4Z"/><path class="cls-1" d="M930.05,0H177.95A178,178,0,0,0,0,177.95V930.05A178,178,0,0,0,177.95,1108H930.05A178,178,0,0,0,1108,930.05V177.95A178,178,0,0,0,930.05,0ZM1039,246.95V861.05A178,178,0,0,1,861.05,1039H246.95A178,178,0,0,1,69,861.05V246.95A178,178,0,0,1,246.95,69H861.05A178,178,0,0,1,1039,246.95Z"/></g></g></svg>